<svg version="1.1" id="Layer_1" xmlns="http://www.w3.org/2000/svg" xmlns:xlink="http://www.w3.org/1999/xlink" x="0px" y="0px"
	 width="100%" viewBox="0 0 512 512" enable-background="new 0 0 512 512" xml:space="preserve">
<path fill="#000000" opacity="1.000000" stroke="none" 
	d="
M513.000000,190.000000 
	C513.000000,297.973755 513.000000,405.447510 513.000000,512.960632 
	C342.401245,512.960632 171.802460,512.960632 1.101843,512.960632 
	C1.101843,342.442932 1.101843,171.885803 1.101843,1.164328 
	C171.666534,1.164328 342.333252,1.164328 513.000000,1.164328 
	C513.000000,63.864170 513.000000,126.682083 513.000000,190.000000 
M487.744934,306.328857 
	C486.180878,305.842590 484.616852,305.356323 483.321289,304.238037 
	C484.055023,303.167145 484.776855,302.087860 485.524567,301.026825 
	C488.210052,297.216034 487.641418,293.442719 484.657593,290.326202 
	C481.570862,287.102081 477.600830,287.208496 473.785095,289.148285 
	C472.361633,289.871948 471.211060,291.132477 469.266937,291.721741 
	C468.599854,284.749054 467.391754,283.601685 462.014343,284.006805 
	C462.038971,248.679642 462.063599,213.352463 463.014282,178.003143 
	C473.342163,178.001877 483.670654,178.068710 493.997620,177.970291 
	C499.072418,177.921936 500.996704,175.586563 500.999725,170.011246 
	C501.002747,164.423065 499.087372,162.179520 494.021179,162.015289 
	C490.361298,161.896652 486.697021,161.912064 483.014587,160.956024 
	C483.013489,131.219650 483.012512,101.483276 483.011139,71.746902 
	C483.010712,63.095798 481.546631,61.694977 472.104004,62.023216 
	C471.273865,62.015499 470.443756,62.002186 469.613617,62.000919 
	C460.365021,61.986820 460.009216,62.354576 459.998322,71.678467 
	C459.971741,94.424805 459.936005,117.171120 459.237915,139.696381 
	C455.848785,135.415497 452.459686,131.134598 448.775513,126.214577 
	C446.554596,125.127739 444.333649,124.040901 442.003815,122.464615 
	C441.949890,122.306412 441.895996,122.148209 441.971680,121.059975 
	C441.979126,110.490059 442.025452,99.919861 441.950348,89.350533 
	C441.939575,87.834457 441.342621,86.322548 440.660828,84.122429 
	C438.097137,83.804916 435.533447,83.487396 432.068573,83.039444 
	C431.076752,83.026237 430.084991,83.003593 429.093140,83.001289 
	C419.883270,82.979836 419.004974,83.863235 418.999084,93.094261 
	C418.993164,102.352798 418.978302,111.611328 418.041840,120.988045 
	C412.705444,120.945404 407.369049,120.902763 402.010590,119.967453 
	C402.009613,117.837486 402.033539,115.707153 402.002869,113.577614 
	C401.919647,107.800690 399.841156,105.885834 393.089844,106.022346 
	C390.098938,106.015083 387.106232,106.070221 384.117584,105.984245 
	C380.626465,105.883812 378.902344,107.392052 378.978485,110.984398 
	C379.048798,114.304047 378.934326,117.627617 377.977295,120.995239 
	C318.005829,120.962746 258.034363,120.930252 198.013824,119.976570 
	C198.011978,101.692566 198.028564,83.408531 197.999680,65.124573 
	C197.987289,57.287674 193.389297,50.661526 186.431396,49.283207 
	C183.083572,48.620029 179.495834,49.168022 175.087296,49.022305 
	C165.442795,49.009121 155.798309,48.995937 146.028778,48.054977 
	C146.023239,43.440895 145.976822,38.826405 146.022644,34.212830 
	C146.078430,28.597143 143.680099,24.043385 138.482056,22.390112 
	C134.292145,21.057486 129.535904,21.505566 124.096550,21.043100 
	C91.435997,21.028759 58.774181,21.159004 26.115984,20.874241 
	C19.821726,20.819357 12.758021,27.493172 12.860201,34.400970 
	C13.219994,58.724541 13.237588,83.060524 12.844595,107.383064 
	C12.736979,114.043510 19.337646,121.984497 26.905407,121.081390 
	C30.791847,120.617607 34.779266,121.000000 39.165104,121.000000 
	C39.165104,127.359894 39.165104,133.160278 39.027786,139.838699 
	C39.027786,142.696701 39.027786,145.554703 39.027786,148.943481 
	C41.273079,148.015915 42.531765,147.495926 43.982906,147.898743 
	C43.964947,200.239456 43.946983,252.580185 43.153416,304.992676 
	C36.080479,306.124969 32.049187,309.945251 30.838566,317.298492 
	C29.437325,325.809540 26.042515,333.531311 18.630346,338.729858 
	C14.915497,341.335266 13.298563,344.688721 12.870402,349.259705 
	C12.334818,354.977509 15.201159,359.294464 17.481863,363.924774 
	C19.951666,368.938995 20.760569,373.975433 19.286301,379.541687 
	C16.740379,389.154022 19.880205,395.481873 28.954929,399.979584 
	C31.251591,401.117859 33.629063,402.093079 35.976154,403.868652 
	C30.736961,414.697418 25.464020,425.510162 20.300028,436.374695 
	C19.631979,437.780182 19.527227,439.453400 19.019638,441.777924 
	C20.420591,442.618530 21.894762,444.274597 23.209648,444.156525 
	C28.501106,443.681366 33.743324,442.657837 39.641262,442.175995 
	C42.150864,446.444458 44.660469,450.712891 47.236675,455.700439 
	C49.538628,458.143677 51.954334,460.104340 54.055241,455.630188 
	C59.439945,444.162750 64.709084,432.641083 70.876595,420.997498 
	C78.166031,418.974457 85.138504,420.138641 92.232758,423.755341 
	C95.800789,431.720490 99.275620,439.730011 103.023804,447.609467 
	C103.689117,449.008087 105.441719,450.653625 106.783669,450.738464 
	C107.982353,450.814240 109.620796,449.106567 110.513916,447.807037 
	C112.619171,444.743744 114.361092,441.433197 116.316978,438.264038 
	C117.713280,436.001495 119.014038,434.266571 122.402321,435.832184 
	C125.267700,437.156281 128.665268,437.561218 131.872864,437.830933 
	C134.035706,438.012787 137.128830,437.980133 138.228638,436.694366 
	C139.196106,435.563385 138.408981,432.388824 137.640045,430.410919 
	C134.601196,422.594086 131.264694,414.892944 128.965271,407.039032 
	C148.297318,407.068298 167.629364,407.097565 186.995880,408.047699 
	C186.960022,424.337433 186.924149,440.627197 185.967743,456.992859 
	C169.691757,456.995056 153.405014,456.665100 137.145950,457.190704 
	C131.891434,457.360596 126.385498,459.086609 121.577156,461.342529 
	C115.674629,464.111786 111.657692,469.270752 111.097000,476.052856 
	C110.661278,481.323425 111.103531,486.666565 111.007309,492.887268 
	C111.007309,495.493530 111.007309,498.099823 111.007309,500.678558 
	C205.942947,500.678558 300.373657,500.678558 395.002594,500.678558 
	C395.002594,493.219055 394.901550,486.076294 395.029846,478.937653 
	C395.169525,471.165314 391.639465,465.665558 384.718292,461.249969 
	C378.620514,457.693939 372.042328,456.805664 365.037506,456.914581 
	C349.729858,457.152649 334.415039,456.927277 319.041382,455.969757 
	C319.036774,439.692017 319.032196,423.414307 319.956757,407.037903 
	C328.644531,406.975891 337.332336,406.913879 346.657623,406.963928 
	C346.870300,406.927490 347.082947,406.891022 347.791534,407.314789 
	C360.852692,426.317413 378.545410,437.172363 402.377014,438.791473 
	C429.441620,439.759766 451.264496,429.226471 465.514923,406.459961 
	C479.983368,383.345245 480.782166,358.657410 468.122162,333.439972 
	C474.800812,326.739899 481.488861,320.049164 488.152618,313.334320 
	C490.250366,311.220551 491.794647,309.048248 487.744934,306.328857 
M433.512634,48.988304 
	C420.563812,56.902485 408.115753,65.838226 394.547607,72.488884 
	C374.725342,82.205093 354.116913,90.322754 333.801910,99.024483 
	C329.082825,101.045853 326.587372,105.942947 328.257324,110.726891 
	C329.551758,114.435074 334.950592,116.770859 339.281036,115.283531 
	C345.105408,113.283096 351.056519,111.505081 356.618073,108.912590 
	C375.797943,99.971939 395.428345,91.763756 413.761871,81.304268 
	C433.925507,69.800674 452.845001,56.116440 472.931610,42.973255 
	C472.937042,42.979874 473.713715,44.369980 474.872803,45.264503 
	C479.407684,48.764164 486.854828,46.310829 487.915344,40.876842 
	C489.132812,34.638504 490.396454,28.359377 490.868530,22.040335 
	C491.284546,16.471315 487.958893,12.881323 482.925262,12.978243 
	C477.760742,13.077684 472.592468,13.039799 467.426483,12.990931 
	C459.146454,12.912603 452.860870,18.859890 457.928192,27.283102 
	C458.455353,28.159424 457.956787,30.560333 457.122742,31.206390 
	C449.526093,37.090992 441.749268,42.743015 433.512634,48.988304 
z"/>
<path fill="#6CF5C2" opacity="1.000000" stroke="none" 
	d="
M39.165104,138.960663 
	C39.165104,133.160278 39.165104,127.359894 39.165104,121.000000 
	C34.779266,121.000000 30.791847,120.617607 26.905407,121.081390 
	C19.337646,121.984497 12.736979,114.043510 12.844595,107.383064 
	C13.237588,83.060524 13.219994,58.724541 12.860201,34.400970 
	C12.758021,27.493172 19.821726,20.819357 26.115984,20.874241 
	C58.774181,21.159004 91.435997,21.028759 124.812164,21.328014 
	C132.760010,24.470127 135.921448,28.989880 135.934219,36.820545 
	C135.970215,58.918976 135.840302,81.018295 136.003708,103.115585 
	C136.065460,111.467720 133.090820,117.573494 124.650391,120.877167 
	C112.027946,121.010902 99.876541,121.064606 87.276672,121.063644 
	C80.184341,121.022209 73.540466,121.035439 66.454742,121.031799 
	C59.949444,119.944008 55.377945,121.984192 51.406647,126.810898 
	C47.772381,131.227982 43.279579,134.938690 39.165104,138.960663 
M71.500000,95.957336 
	C85.166466,95.956871 98.833000,95.982086 112.499367,95.944389 
	C118.735107,95.927193 122.936615,92.406166 122.762962,87.492516 
	C122.597092,82.799400 118.926758,79.963043 112.858025,79.958221 
	C89.858368,79.939957 66.858673,79.937645 43.859028,79.960297 
	C37.754097,79.966309 34.324352,82.719910 34.122635,87.623985 
	C33.933113,92.231461 38.194798,95.897972 44.000496,95.939789 
	C52.833248,96.003418 61.666794,95.956978 71.500000,95.957336 
M117.330055,45.614723 
	C116.693550,45.435879 116.057335,45.101814 115.420486,45.100582 
	C90.978210,45.053211 66.535683,44.982193 42.093697,45.064327 
	C37.590511,45.079456 34.081734,48.916172 34.123337,53.060844 
	C34.168732,57.583485 37.921741,60.971172 43.207020,60.980999 
	C66.486214,61.024281 89.765617,60.968006 113.044739,61.028328 
	C117.556366,61.040020 120.869545,59.344723 122.328888,55.023132 
	C123.751732,50.809597 121.396416,48.087070 117.330055,45.614723 
z"/>
<path fill="#ECEFF1" opacity="1.000000" stroke="none" 
	d="
M319.103149,456.891174 
	C334.415039,456.927277 349.729858,457.152649 365.037506,456.914581 
	C372.042328,456.805664 378.620514,457.693939 384.867859,462.009155 
	C385.346649,470.885803 385.505310,479.015289 386.075714,487.115753 
	C386.368896,491.279541 384.658508,492.084320 380.895905,492.080261 
	C290.982544,491.983429 201.069031,491.989807 111.155563,491.977448 
	C111.103531,486.666565 110.661278,481.323425 111.097000,476.052856 
	C111.657692,469.270752 115.674629,464.111786 121.577156,461.342529 
	C126.385498,459.086609 131.891434,457.360596 137.145950,457.190704 
	C153.405014,456.665100 169.691757,456.995056 186.900833,457.013245 
	C202.965515,457.054169 218.097137,457.108826 233.228668,457.087616 
	C258.167999,457.052704 283.107239,456.968750 308.497284,456.987213 
	C312.333099,457.009705 315.718109,456.950439 319.103149,456.891174 
z"/>
<path fill="#FE6570" opacity="1.000000" stroke="none" 
	d="
M401.897522,438.071564 
	C378.545410,437.172363 360.852692,426.317413 347.495178,406.861389 
	C347.198822,406.407990 346.996735,405.998810 346.918671,405.659729 
	C345.285004,402.498718 343.729431,399.676758 342.102539,396.489319 
	C336.013245,381.849152 334.970795,367.114594 338.127258,351.676025 
	C339.545715,347.740723 340.569000,344.042297 342.069946,340.549103 
	C353.681915,313.524475 380.557434,297.755157 407.184692,298.740265 
	C418.818970,301.205688 429.236359,306.033691 439.430786,312.269897 
	C440.453247,315.409271 441.242889,318.265717 441.874512,321.410126 
	C438.292328,325.101654 434.868256,328.505249 431.224701,331.621796 
	C423.147705,326.034302 414.539215,323.357330 404.562042,323.850891 
	C382.685547,323.544525 360.991394,343.031982 361.015106,368.593628 
	C361.037384,392.599243 379.913361,412.240356 404.447723,413.490479 
	C405.547485,413.567749 406.289642,413.533478 407.253540,413.565430 
	C407.804840,413.601288 408.068268,413.453278 408.685852,413.195251 
	C421.508240,412.460602 431.799011,407.348755 439.942719,398.029877 
	C451.394928,384.925018 456.173157,364.141571 443.696106,343.110626 
	C446.830078,339.776367 449.844513,336.747101 453.257812,333.791504 
	C455.445007,334.250824 457.233337,334.636536 459.161072,335.345154 
	C469.362091,355.543091 469.880707,375.810822 461.716217,396.397766 
	C452.573486,419.451385 426.593231,437.520660 401.897522,438.071564 
z"/>
<path fill="#FFE177" opacity="1.000000" stroke="none" 
	d="
M35.969398,403.143219 
	C33.629063,402.093079 31.251591,401.117859 28.954929,399.979584 
	C19.880205,395.481873 16.740379,389.154022 19.286301,379.541687 
	C20.760569,373.975433 19.951666,368.938995 17.481863,363.924774 
	C15.201159,359.294464 12.334818,354.977509 12.870402,349.259705 
	C13.298563,344.688721 14.915497,341.335266 18.630346,338.729858 
	C26.042515,333.531311 29.437325,325.809540 30.838566,317.298492 
	C32.049187,309.945251 36.080479,306.124969 44.003124,305.031067 
	C55.395622,306.549316 63.807167,302.399902 71.382996,295.075378 
	C72.806664,294.652100 73.893227,294.306152 75.177399,294.231689 
	C78.839409,297.071198 82.185501,299.822021 85.798744,302.160004 
	C90.125549,304.959656 94.852417,306.149231 100.293434,304.112823 
	C101.778671,304.408569 102.908585,304.736115 104.280800,305.312592 
	C111.796661,307.043884 115.918388,311.878662 116.853920,318.828705 
	C117.965721,327.088287 121.748726,333.435760 128.046844,338.580627 
	C129.328705,339.627716 130.512939,340.835205 131.566757,342.113434 
	C135.656174,347.073517 135.759262,352.342621 132.599533,357.806976 
	C128.441635,364.997559 126.314896,372.199554 127.715546,380.992004 
	C129.559036,392.564240 127.228119,395.181976 116.622604,400.195374 
	C113.644836,401.602997 110.023064,402.530365 107.960686,404.817719 
	C102.900566,410.429871 98.576698,416.705872 93.616333,422.763000 
	C92.828392,422.904602 92.380753,422.998016 91.933113,423.091461 
	C85.138504,420.138641 78.166031,418.974457 70.102661,421.023651 
	C67.871658,421.659393 66.414589,422.269012 64.520470,422.874603 
	C56.558426,423.970734 51.369022,420.619263 47.638611,414.347321 
	C46.372482,412.218567 45.202744,409.882935 43.432850,408.241425 
	C41.248142,406.215240 38.483467,404.814331 35.969398,403.143219 
M84.039345,396.228241 
	C102.756126,394.672302 118.333496,376.828613 117.877831,357.466644 
	C117.410286,337.600220 101.520416,320.799133 81.558449,319.335510 
	C81.071510,319.239227 80.587418,319.077454 80.097221,319.056122 
	C64.345634,318.371124 49.830769,327.668610 43.043255,342.776794 
	C36.822853,356.622650 39.700459,374.036774 50.470356,384.841003 
	C59.446537,393.845856 70.075439,398.836975 84.039345,396.228241 
z"/>
<path fill="#A79BA7" opacity="1.000000" stroke="none" 
	d="
M308.046509,456.905457 
	C283.107239,456.968750 258.167999,457.052704 233.228668,457.087616 
	C218.097137,457.108826 202.965515,457.054169 187.361099,456.975281 
	C186.924149,440.627197 186.960022,424.337433 187.283875,407.299377 
	C188.876663,406.395142 190.181351,406.103851 191.486237,406.103027 
	C228.916901,406.078888 266.347565,406.079010 303.778259,406.102417 
	C305.262085,406.103363 306.745697,406.370636 308.170197,406.932312 
	C308.089478,423.868988 308.067993,440.387238 308.046509,456.905457 
z"/>
<path fill="#FFE178" opacity="1.000000" stroke="none" 
	d="
M66.896599,121.048668 
	C73.540466,121.035439 80.184341,121.022209 87.495300,121.384735 
	C90.417854,122.535873 92.668633,123.968979 94.929535,123.985130 
	C118.091667,124.150604 141.255463,124.102608 164.418747,124.074776 
	C170.490433,124.067482 173.905304,121.228157 173.988098,116.305473 
	C174.067764,111.569450 170.350281,108.221855 164.591644,108.114082 
	C158.428024,107.998734 152.260590,108.086601 146.035507,107.615311 
	C146.031555,101.336075 146.086899,95.527306 146.600128,89.751221 
	C150.715744,89.793030 154.375946,89.887993 158.030457,89.783562 
	C160.843246,89.703186 163.658051,89.452766 166.455597,89.134186 
	C171.071960,88.608498 173.887848,85.677071 173.993210,81.453819 
	C174.098282,77.242256 170.729065,73.594696 165.586243,73.314919 
	C159.122055,72.963226 152.624542,73.224762 146.070129,72.743774 
	C146.050507,64.504829 146.102158,56.743793 146.153809,48.982754 
	C155.798309,48.995937 165.442795,49.009121 175.782990,49.333469 
	C184.639847,52.700043 187.292221,58.627350 187.136215,67.188034 
	C186.730743,89.438240 186.943161,111.700996 187.045898,133.958115 
	C187.067245,138.584473 185.796570,142.376770 182.183334,145.370117 
	C180.684006,146.612244 179.400208,148.114502 177.611252,149.603104 
	C173.567535,149.517548 169.931595,149.178329 166.294281,149.162888 
	C150.344086,149.095123 134.393524,149.121078 117.955452,149.082428 
	C111.250969,148.232239 106.488472,149.689423 102.656357,155.469849 
	C99.697975,159.932297 94.941452,163.202682 90.938339,166.536880 
	C90.882156,161.757416 90.755165,157.440170 90.901474,153.132202 
	C91.005447,150.070572 89.697617,149.066467 86.756363,149.091095 
	C82.286415,149.128555 77.813728,148.837982 73.102333,148.446808 
	C66.381851,144.825684 63.962212,139.242111 64.113602,132.214813 
	C64.167061,129.733444 64.050484,127.248405 64.132889,124.495079 
	C65.135033,123.166298 66.015816,122.107483 66.896599,121.048668 
z"/>
<path fill="#ECEFF0" opacity="1.000000" stroke="none" 
	d="
M198.062912,120.897758 
	C258.034363,120.930252 318.005829,120.962746 378.500977,121.439301 
	C378.997864,130.592331 378.971039,139.301285 378.481445,148.006683 
	C372.372833,148.002853 366.727020,148.002594 361.011200,147.539642 
	C360.924713,142.941528 360.973083,138.804504 360.873779,134.671036 
	C360.771393,130.410690 358.977142,127.768494 354.228638,127.974243 
	C351.090942,128.110199 347.943451,128.017776 344.800415,128.035095 
	C340.759491,128.057358 338.729309,129.968674 338.752625,134.135345 
	C338.778534,138.759201 338.590790,143.384247 338.059021,148.007538 
	C288.384369,147.989227 239.146790,147.972137 190.121765,147.691833 
	C195.081161,144.436462 197.148529,140.116516 197.202133,134.529633 
	C197.245728,129.983337 197.758301,125.441551 198.062912,120.897758 
z"/>
<path fill="#ECEFF1" opacity="1.000000" stroke="none" 
	d="
M64.011536,124.765045 
	C64.050484,127.248405 64.167061,129.733444 64.113602,132.214813 
	C63.962212,139.242111 66.381851,144.825684 72.735046,148.688644 
	C72.071823,150.985565 71.070869,152.800003 71.068130,154.615967 
	C70.997398,201.461456 71.030655,248.307114 71.045891,295.152740 
	C63.807167,302.399902 55.395622,306.549316 44.390930,304.995178 
	C43.946983,252.580185 43.964947,200.239456 44.035545,147.121887 
	C50.729305,139.151703 57.370422,131.958374 64.011536,124.765045 
z"/>
<path fill="#A79BA7" opacity="1.000000" stroke="none" 
	d="
M433.768860,48.725666 
	C441.749268,42.743015 449.526093,37.090992 457.122742,31.206390 
	C457.956787,30.560333 458.455353,28.159424 457.928192,27.283102 
	C452.860870,18.859890 459.146454,12.912603 467.426483,12.990931 
	C472.592468,13.039799 477.760742,13.077684 482.925262,12.978243 
	C487.958893,12.881323 491.284546,16.471315 490.868530,22.040335 
	C490.396454,28.359377 489.132812,34.638504 487.915344,40.876842 
	C486.854828,46.310829 479.407684,48.764164 474.872803,45.264503 
	C473.713715,44.369980 472.937042,42.979874 472.931610,42.973255 
	C452.845001,56.116440 433.925507,69.800674 413.761871,81.304268 
	C395.428345,91.763756 375.797943,99.971939 356.618073,108.912590 
	C351.056519,111.505081 345.105408,113.283096 339.281036,115.283531 
	C334.950592,116.770859 329.551758,114.435074 328.257324,110.726891 
	C326.587372,105.942947 329.082825,101.045853 333.801910,99.024483 
	C354.116913,90.322754 374.725342,82.205093 394.547607,72.488884 
	C408.115753,65.838226 420.563812,56.902485 433.768860,48.725666 
z"/>
<path fill="#9FACBA" opacity="1.000000" stroke="none" 
	d="
M483.034729,161.867706 
	C486.697021,161.912064 490.361298,161.896652 494.021179,162.015289 
	C499.087372,162.179520 501.002747,164.423065 500.999725,170.011246 
	C500.996704,175.586563 499.072418,177.921936 493.997620,177.970291 
	C483.670654,178.068710 473.342163,178.001877 462.093201,178.005692 
	C458.426575,178.040176 455.680969,178.072098 452.474792,178.065552 
	C446.352692,178.060074 440.691223,178.093094 434.561279,178.081482 
	C428.719208,178.069931 423.345642,178.102966 417.507080,178.092117 
	C411.895447,178.031952 406.748749,178.002747 401.602081,178.001587 
	C377.361664,177.996140 353.121216,178.027405 328.880920,177.975845 
	C323.360321,177.964111 320.037720,174.860641 320.010437,170.053513 
	C319.983093,165.236603 323.303070,162.159332 328.786163,162.014618 
	C332.104736,161.927032 335.426331,161.952896 339.235870,161.956421 
	C346.771301,161.957428 353.817444,161.929825 361.340668,161.937805 
	C367.587891,161.941757 373.357971,161.910126 379.586426,161.914505 
	C385.366302,161.916595 390.687866,161.882675 396.425720,161.903290 
	C398.238281,161.917938 399.634613,161.878067 401.259644,161.863617 
	C401.488403,161.889038 401.945892,161.834335 402.413910,161.892456 
	C408.545013,161.929245 414.208130,161.907913 420.345154,161.922516 
	C425.900635,161.931946 430.982178,161.905441 436.472717,161.925690 
	C438.248535,161.924347 439.615356,161.876251 441.224731,161.878494 
	C441.467316,161.928848 441.962646,161.927902 442.421234,161.951981 
	C446.231354,161.949722 449.582886,161.923386 453.381042,161.932068 
	C455.925659,161.953445 458.023651,161.939789 460.580627,161.944809 
	C466.032471,161.943161 471.025330,161.922821 476.456543,161.938202 
	C478.941498,161.938507 480.988098,161.903107 483.034729,161.867706 
z"/>
<path fill="#D2D2D7" opacity="1.000000" stroke="none" 
	d="
M111.081436,492.432373 
	C201.069031,491.989807 290.982544,491.983429 380.895905,492.080261 
	C384.658508,492.084320 386.368896,491.279541 386.075714,487.115753 
	C385.505310,479.015289 385.346649,470.885803 385.032227,462.333801 
	C391.639465,465.665558 395.169525,471.165314 395.029846,478.937653 
	C394.901550,486.076294 395.002594,493.219055 395.002594,500.678558 
	C300.373657,500.678558 205.942947,500.678558 111.007309,500.678558 
	C111.007309,498.099823 111.007309,495.493530 111.081436,492.432373 
z"/>
<path fill="#6B5F69" opacity="1.000000" stroke="none" 
	d="
M452.858948,333.717834 
	C449.844513,336.747101 446.830078,339.776367 443.391235,343.242920 
	C436.932343,349.718475 430.897888,355.756775 424.572693,361.967712 
	C420.374390,366.007751 416.557068,369.972076 412.534302,373.715698 
	C408.386414,377.575775 403.972870,377.629730 400.575775,374.152374 
	C397.180969,370.677368 397.420349,366.351227 401.331604,362.234192 
	C405.226593,358.134338 409.190216,354.099670 413.417877,349.887817 
	C419.622711,343.795746 425.533447,337.852295 431.444183,331.908844 
	C434.868256,328.505249 438.292328,325.101654 442.172363,321.246643 
	C450.980194,312.479309 459.356476,304.187561 467.651550,295.815430 
	C468.639984,294.817841 469.185333,293.381287 469.936035,292.148193 
	C471.211060,291.132477 472.361633,289.871948 473.785095,289.148285 
	C477.600830,287.208496 481.570862,287.102081 484.657593,290.326202 
	C487.641418,293.442719 488.210052,297.216034 485.524567,301.026825 
	C484.776855,302.087860 484.055023,303.167145 482.839325,304.619751 
	C473.172974,313.992981 463.988556,322.984467 454.563141,332.087769 
	C453.834412,332.705627 453.346680,333.211731 452.858948,333.717834 
z"/>
<path fill="#D1D1D6" opacity="1.000000" stroke="none" 
	d="
M308.229431,406.513794 
	C306.745697,406.370636 305.262085,406.103363 303.778259,406.102417 
	C266.347565,406.079010 228.916901,406.078888 191.486237,406.103027 
	C190.181351,406.103851 188.876663,406.395142 187.266647,406.838928 
	C167.629364,407.097565 148.297318,407.068298 128.468445,406.996552 
	C127.971619,406.954071 127.859123,406.781555 127.768112,406.600281 
	C127.485199,406.216370 127.254189,406.079926 126.713120,405.807861 
	C125.883553,404.121490 125.324921,402.636932 125.138130,401.065613 
	C127.937531,399.951324 130.365097,398.923798 133.273895,397.915924 
	C201.505371,397.947479 269.255615,397.967651 337.005798,397.924530 
	C338.728729,397.923431 340.451172,397.226959 342.173859,396.854797 
	C343.729431,399.676758 345.285004,402.498718 346.717285,405.753906 
	C346.333710,406.349182 346.142426,406.570770 346.020111,406.851868 
	C337.332336,406.913879 328.644531,406.975891 319.189880,406.813477 
	C315.025146,406.563934 311.627289,406.538849 308.229431,406.513794 
z"/>
<path fill="#8AC9FE" opacity="1.000000" stroke="none" 
	d="
M476.018219,161.902481 
	C471.025330,161.922821 466.032471,161.943161 460.563538,161.484131 
	C460.026306,153.975662 459.965118,146.946564 459.903931,139.917450 
	C459.936005,117.171120 459.971741,94.424805 459.998322,71.678467 
	C460.009216,62.354576 460.365021,61.986820 469.613617,62.000919 
	C470.443756,62.002186 471.273865,62.015499 472.746979,62.395664 
	C474.259155,65.316223 475.869415,67.859917 475.884613,70.413109 
	C476.066498,100.908752 476.011322,131.405792 476.018219,161.902481 
z"/>
<path fill="#6CF5C2" opacity="1.000000" stroke="none" 
	d="
M436.063751,161.878922 
	C430.982178,161.905441 425.900635,161.931946 420.362152,161.469452 
	C419.838257,156.635254 419.771301,152.290054 419.782654,147.486206 
	C419.832367,138.674408 419.803741,130.321259 419.769775,121.777740 
	C419.635986,121.307518 419.424500,121.212807 419.049622,121.209793 
	C418.969238,121.116371 418.967346,120.869865 418.967346,120.869865 
	C418.978302,111.611328 418.993164,102.352798 418.999084,93.094261 
	C419.004974,83.863235 419.883270,82.979836 429.093140,83.001289 
	C430.084991,83.003593 431.076752,83.026237 432.730225,83.394485 
	C434.259705,86.130814 435.860596,88.505592 435.881866,90.894409 
	C436.092194,114.554588 436.040924,138.217087 436.063751,161.878922 
z"/>
<path fill="#FE646F" opacity="1.000000" stroke="none" 
	d="
M35.972778,403.505920 
	C38.483467,404.814331 41.248142,406.215240 43.432850,408.241425 
	C45.202744,409.882935 46.372482,412.218567 47.638611,414.347321 
	C51.369022,420.619263 56.558426,423.970734 64.540588,423.278748 
	C64.984604,424.184937 65.127579,424.755249 64.935356,425.170380 
	C60.617779,434.494720 56.371407,443.856049 51.777252,453.043182 
	C51.211594,454.174316 48.751999,454.358398 47.170067,454.981354 
	C44.660469,450.712891 42.150864,446.444458 39.301659,441.618011 
	C37.225246,440.449341 35.455280,439.245544 33.757915,439.340424 
	C28.876745,439.613342 24.024918,440.411102 19.161556,441.002625 
	C19.527227,439.453400 19.631979,437.780182 20.300028,436.374695 
	C25.464020,425.510162 30.736961,414.697418 35.972778,403.505920 
z"/>
<path fill="#FE616C" opacity="1.000000" stroke="none" 
	d="
M124.766289,401.152344 
	C125.324921,402.636932 125.883553,404.121490 126.773468,406.021973 
	C127.269890,406.742004 127.521347,406.856567 127.859123,406.781555 
	C127.859123,406.781555 127.971619,406.954071 128.005096,407.051483 
	C131.264694,414.892944 134.601196,422.594086 137.640045,430.410919 
	C138.408981,432.388824 139.196106,435.563385 138.228638,436.694366 
	C137.128830,437.980133 134.035706,438.012787 131.872864,437.830933 
	C128.665268,437.561218 125.267700,437.156281 122.402321,435.832184 
	C119.014038,434.266571 117.713280,436.001495 116.316978,438.264038 
	C114.361092,441.433197 112.619171,444.743744 110.513916,447.807037 
	C109.620796,449.106567 107.982353,450.814240 106.783669,450.738464 
	C105.441719,450.653625 103.689117,449.008087 103.023804,447.609467 
	C99.275620,439.730011 95.800789,431.720490 92.082932,423.423401 
	C92.380753,422.998016 92.828392,422.904602 94.040085,422.864929 
	C99.556595,423.547394 103.727829,422.248779 106.844666,418.614075 
	C109.084435,416.002167 110.500458,412.604248 112.969284,410.287231 
	C116.579491,406.899017 120.803741,404.165100 124.766289,401.152344 
z"/>
<path fill="#FFD165" opacity="1.000000" stroke="none" 
	d="
M198.038361,120.437164 
	C197.758301,125.441551 197.245728,129.983337 197.202133,134.529633 
	C197.148529,140.116516 195.081161,144.436462 189.738953,147.758911 
	C185.435196,148.558960 181.726791,149.028717 178.018387,149.498459 
	C179.400208,148.114502 180.684006,146.612244 182.183334,145.370117 
	C185.796570,142.376770 187.067245,138.584473 187.045898,133.958115 
	C186.943161,111.700996 186.730743,89.438240 187.136215,67.188034 
	C187.292221,58.627350 184.639847,52.700043 176.247711,49.406090 
	C179.495834,49.168022 183.083572,48.620029 186.431396,49.283207 
	C193.389297,50.661526 197.987289,57.287674 197.999680,65.124573 
	C198.028564,83.408531 198.011978,101.692566 198.038361,120.437164 
z"/>
<path fill="#D2D2D7" opacity="1.000000" stroke="none" 
	d="
M452.935394,178.104034 
	C455.680969,178.072098 458.426575,178.040176 461.630188,178.016769 
	C462.063599,213.352463 462.038971,248.679642 461.999329,284.815491 
	C459.029236,288.805420 456.074127,291.986664 453.080566,294.685638 
	C453.006561,255.503586 452.970978,216.803818 452.935394,178.104034 
z"/>
<path fill="#03E49A" opacity="1.000000" stroke="none" 
	d="
M146.142258,89.718544 
	C146.086899,95.527306 146.031555,101.336075 145.926147,107.959511 
	C143.330566,112.266983 141.471725,116.957382 138.048813,118.920059 
	C134.535904,120.934357 129.494125,120.282295 125.121445,120.797150 
	C133.090820,117.573494 136.065460,111.467720 136.003708,103.115585 
	C135.840302,81.018295 135.970215,58.918976 135.934219,36.820545 
	C135.921448,28.989880 132.760010,24.470127 125.279343,21.388273 
	C129.535904,21.505566 134.292145,21.057486 138.482056,22.390112 
	C143.680099,24.043385 146.078430,28.597143 146.022644,34.212830 
	C145.976822,38.826405 146.023239,43.440895 146.091278,48.518867 
	C146.102158,56.743793 146.050507,64.504829 145.999161,73.183319 
	C146.047073,79.306686 146.094666,84.512619 146.142258,89.718544 
z"/>
<path fill="#FD4957" opacity="1.000000" stroke="none" 
	d="
M402.137268,438.431519 
	C426.593231,437.520660 452.573486,419.451385 461.716217,396.397766 
	C469.880707,375.810822 469.362091,355.543091 459.538452,335.333893 
	C462.473663,334.695068 465.170837,334.390442 467.868042,334.085815 
	C480.782166,358.657410 479.983368,383.345245 465.514923,406.459961 
	C451.264496,429.226471 429.441620,439.759766 402.137268,438.431519 
z"/>
<path fill="#FFE178" opacity="1.000000" stroke="none" 
	d="
M396.009430,161.848755 
	C390.687866,161.882675 385.366302,161.916595 379.571472,161.461639 
	C379.046875,156.651917 378.995544,152.331085 378.944214,148.010239 
	C378.971039,139.301285 378.997864,130.592331 378.962952,121.416412 
	C378.934326,117.627617 379.048798,114.304047 378.978485,110.984398 
	C378.902344,107.392052 380.626465,105.883812 384.117584,105.984245 
	C387.106232,106.070221 390.098938,106.015083 393.749634,106.417007 
	C394.940002,108.828476 395.915070,110.841789 395.930878,112.862633 
	C396.058868,129.190552 396.006653,145.519882 396.009430,161.848755 
z"/>
<path fill="#63B8FF" opacity="1.000000" stroke="none" 
	d="
M476.456543,161.938202 
	C476.011322,131.405792 476.066498,100.908752 475.884613,70.413109 
	C475.869415,67.859917 474.259155,65.316223 473.196381,62.467594 
	C481.546631,61.694977 483.010712,63.095798 483.011139,71.746902 
	C483.012512,101.483276 483.013489,131.219650 483.024658,161.411865 
	C480.988098,161.903107 478.941498,161.938507 476.456543,161.938202 
z"/>
<path fill="#857885" opacity="1.000000" stroke="none" 
	d="
M308.170197,406.932281 
	C311.627289,406.538849 315.025146,406.563934 318.725281,406.862793 
	C319.032196,423.414307 319.036774,439.692017 319.072266,456.430481 
	C315.718109,456.950439 312.333099,457.009705 308.497284,456.987213 
	C308.067993,440.387238 308.089478,423.868988 308.170197,406.932281 
z"/>
<path fill="#ECEFEF" opacity="1.000000" stroke="none" 
	d="
M419.775116,121.968124 
	C419.803741,130.321259 419.832367,138.674408 419.341064,147.499069 
	C412.971985,147.991714 407.122894,148.012833 401.201782,147.568542 
	C401.106934,142.351059 400.951935,137.594803 401.101868,132.848206 
	C401.228302,128.846375 401.708832,124.855721 402.032654,120.860123 
	C407.369049,120.902763 412.705444,120.945404 418.504578,120.928955 
	C418.967346,120.869865 418.969238,121.116371 419.120056,121.352303 
	C419.404785,121.760178 419.572876,121.886810 419.775116,121.968124 
z"/>
<path fill="#01E499" opacity="1.000000" stroke="none" 
	d="
M436.472717,161.925690 
	C436.040924,138.217087 436.092194,114.554588 435.881866,90.894409 
	C435.860596,88.505592 434.259705,86.130814 433.180847,83.459702 
	C435.533447,83.487396 438.097137,83.804916 440.830658,84.948929 
	C441.004791,94.590279 440.936615,103.406090 441.051208,112.219513 
	C441.093628,115.479218 441.565887,118.733337 441.842102,121.990005 
	C441.895996,122.148209 441.949890,122.306412 441.968445,123.173386 
	C441.867676,136.252151 441.802307,148.622147 441.571167,161.091171 
	C441.212891,161.368713 441.071808,161.581360 440.982178,161.828140 
	C439.615356,161.876251 438.248535,161.924347 436.472717,161.925690 
z"/>
<path fill="#E2A770" opacity="1.000000" stroke="none" 
	d="
M453.119019,295.167908 
	C456.074127,291.986664 459.029236,288.805420 462.050262,285.277283 
	C467.391754,283.601685 468.599854,284.749054 469.601501,291.934998 
	C469.185333,293.381287 468.639984,294.817841 467.651550,295.815430 
	C459.356476,304.187561 450.980194,312.479309 442.330444,320.958710 
	C441.242889,318.265717 440.453247,315.409271 439.407074,311.910736 
	C439.470367,309.883331 439.790161,308.497955 440.447327,307.057007 
	C444.896118,303.056915 449.007568,299.112427 453.119019,295.167908 
z"/>
<path fill="#ECEFF1" opacity="1.000000" stroke="none" 
	d="
M441.736938,160.992142 
	C441.802307,148.622147 441.867676,136.252151 442.022888,123.418106 
	C444.333649,124.040901 446.554596,125.127739 448.909363,126.928177 
	C454.092010,138.634033 453.054565,150.317627 452.934418,161.897034 
	C449.582886,161.923386 446.231354,161.949722 442.400543,161.709808 
	C441.921265,161.443542 441.736938,160.992142 441.736938,160.992142 
z"/>
<path fill="#FFD165" opacity="1.000000" stroke="none" 
	d="
M402.021606,120.413788 
	C401.708832,124.855721 401.228302,128.846375 401.101868,132.848206 
	C400.951935,137.594803 401.106934,142.351059 401.126953,148.024460 
	C401.162048,152.974869 401.200012,157.003937 401.163666,161.228516 
	C401.089386,161.424026 401.030914,161.838196 401.030914,161.838196 
	C399.634613,161.878067 398.238281,161.917938 396.425720,161.903290 
	C396.006653,145.519882 396.058868,129.190552 395.930878,112.862633 
	C395.915070,110.841789 394.940002,108.828476 394.207703,106.492073 
	C399.841156,105.885834 401.919647,107.800690 402.002869,113.577614 
	C402.033539,115.707153 402.009613,117.837486 402.021606,120.413788 
z"/>
<path fill="#05E59B" opacity="1.000000" stroke="none" 
	d="
M64.132896,124.495087 
	C57.370422,131.958374 50.729305,139.151703 43.939316,146.660477 
	C42.531765,147.495926 41.273079,148.015915 39.027786,148.943481 
	C39.027786,145.554703 39.027786,142.696701 39.096443,139.399689 
	C43.279579,134.938690 47.772381,131.227982 51.406647,126.810898 
	C55.377945,121.984192 59.949444,119.944008 66.454742,121.031799 
	C66.015816,122.107483 65.135033,123.166298 64.132896,124.495087 
z"/>
<path fill="#E1A66E" opacity="1.000000" stroke="none" 
	d="
M454.804138,331.975952 
	C463.988556,322.984467 473.172974,313.992981 482.705078,304.935760 
	C484.616852,305.356323 486.180878,305.842590 487.603485,306.794373 
	C480.954437,314.017029 474.225372,320.578552 468.021912,327.604218 
	C464.266754,331.857086 460.403931,334.103912 454.804138,331.975952 
z"/>
<path fill="#D2D2D7" opacity="1.000000" stroke="none" 
	d="
M453.381042,161.932068 
	C453.054565,150.317627 454.092010,138.634033 449.056885,127.247742 
	C452.459686,131.134598 455.848785,135.415497 459.570923,139.806915 
	C459.965118,146.946564 460.026306,153.975662 460.104553,161.465454 
	C458.023651,161.939789 455.925659,161.953445 453.381042,161.932068 
z"/>
<path fill="#C68A59" opacity="1.000000" stroke="none" 
	d="
M454.563171,332.087769 
	C460.403931,334.103912 464.266754,331.857086 468.021912,327.604218 
	C474.225372,320.578552 480.954437,314.017029 487.770905,307.115234 
	C491.794647,309.048248 490.250366,311.220551 488.152618,313.334320 
	C481.488861,320.049164 474.800812,326.739899 467.995117,333.762878 
	C465.170837,334.390442 462.473663,334.695068 459.399048,335.010986 
	C457.233337,334.636536 455.445007,334.250824 453.257812,333.791504 
	C453.346680,333.211731 453.834412,332.705627 454.563171,332.087769 
z"/>
<path fill="#FD4C59" opacity="1.000000" stroke="none" 
	d="
M47.203369,455.340881 
	C48.751999,454.358398 51.211594,454.174316 51.777252,453.043182 
	C56.371407,443.856049 60.617779,434.494720 64.935356,425.170380 
	C65.127579,424.755249 64.984604,424.184937 64.977646,423.282776 
	C66.414589,422.269012 67.871658,421.659393 69.676575,421.095459 
	C64.709084,432.641083 59.439945,444.162750 54.055241,455.630188 
	C51.954334,460.104340 49.538628,458.143677 47.203369,455.340881 
z"/>
<path fill="#FD4C59" opacity="1.000000" stroke="none" 
	d="
M19.090599,441.390289 
	C24.024918,440.411102 28.876745,439.613342 33.757915,439.340424 
	C35.455280,439.245544 37.225246,440.449341 38.982895,441.448456 
	C33.743324,442.657837 28.501106,443.681366 23.209648,444.156525 
	C21.894762,444.274597 20.420591,442.618530 19.090599,441.390289 
z"/>
<path fill="#25E8A7" opacity="1.000000" stroke="none" 
	d="
M441.906891,121.524994 
	C441.565887,118.733337 441.093628,115.479218 441.051208,112.219513 
	C440.936615,103.406090 441.004791,94.590279 441.008728,85.292068 
	C441.342621,86.322548 441.939575,87.834457 441.950348,89.350533 
	C442.025452,99.919861 441.979126,110.490059 441.906891,121.524994 
z"/>
<path fill="#DEDEE1" opacity="1.000000" stroke="none" 
	d="
M346.338867,406.907898 
	C346.142426,406.570770 346.333710,406.349182 346.795349,406.092957 
	C346.996735,405.998810 347.198822,406.407990 347.247223,406.631256 
	C347.082947,406.891022 346.870300,406.927490 346.338867,406.907898 
z"/>
<path fill="#EAEFF0" opacity="1.000000" stroke="none" 
	d="
M71.000000,95.957306 
	C61.666794,95.956978 52.833248,96.003418 44.000496,95.939789 
	C38.194798,95.897972 33.933113,92.231461 34.122635,87.623985 
	C34.324352,82.719910 37.754097,79.966309 43.859028,79.960297 
	C66.858673,79.937645 89.858368,79.939957 112.858025,79.958221 
	C118.926758,79.963043 122.597092,82.799400 122.762962,87.492516 
	C122.936615,92.406166 118.735107,95.927193 112.499367,95.944389 
	C98.833000,95.982086 85.166466,95.956871 71.000000,95.957306 
z"/>
<path fill="#EBEFF1" opacity="1.000000" stroke="none" 
	d="
M117.701088,45.784485 
	C121.396416,48.087070 123.751732,50.809597 122.328888,55.023132 
	C120.869545,59.344723 117.556366,61.040020 113.044739,61.028328 
	C89.765617,60.968006 66.486214,61.024281 43.207020,60.980999 
	C37.921741,60.971172 34.168732,57.583485 34.123337,53.060844 
	C34.081734,48.916172 37.590511,45.079456 42.093697,45.064327 
	C66.535683,44.982193 90.978210,45.053211 115.420486,45.100582 
	C116.057335,45.101814 116.693550,45.435879 117.701088,45.784485 
z"/>
<path fill="#ECEFEF" opacity="1.000000" stroke="none" 
	d="
M124.650391,120.877167 
	C129.494125,120.282295 134.535904,120.934357 138.048813,118.920059 
	C141.471725,116.957382 143.330566,112.266983 145.985474,108.429977 
	C152.260590,108.086601 158.428024,107.998734 164.591644,108.114082 
	C170.350281,108.221855 174.067764,111.569450 173.988098,116.305473 
	C173.905304,121.228157 170.490433,124.067482 164.418747,124.074776 
	C141.255463,124.102608 118.091667,124.150604 94.929535,123.985130 
	C92.668633,123.968979 90.417854,122.535873 87.943764,121.439400 
	C99.876541,121.064606 112.027946,121.010902 124.650391,120.877167 
z"/>
<path fill="#D8ECFE" opacity="1.000000" stroke="none" 
	d="
M177.611252,149.603104 
	C181.726791,149.028717 185.435196,148.558960 189.526398,148.022125 
	C239.146790,147.972137 288.384369,147.989227 338.152161,148.463013 
	C338.703796,153.255753 338.725159,157.591766 338.746552,161.927795 
	C335.426331,161.952896 332.104736,161.927032 328.786163,162.014618 
	C323.303070,162.159332 319.983093,165.236603 320.010437,170.053513 
	C320.037720,174.860641 323.360321,177.964111 328.880920,177.975845 
	C353.121216,178.027405 377.361664,177.996140 401.602081,178.001587 
	C406.748749,178.002747 411.895447,178.031952 417.515198,178.547729 
	C417.990753,219.024841 417.993256,259.002441 417.568787,299.018127 
	C413.780914,298.840302 410.420013,298.624420 407.059082,298.408539 
	C380.557434,297.755157 353.681915,313.524475 342.069946,340.549103 
	C340.569000,344.042297 339.545715,347.740723 337.662231,351.675293 
	C273.035461,352.002747 209.047592,351.998993 145.012192,351.594360 
	C144.966522,345.995483 142.645615,341.865601 138.663818,338.805756 
	C132.161148,333.808746 128.509415,327.363159 127.006355,319.312378 
	C125.026169,308.705963 120.390434,305.153076 109.509300,305.026062 
	C107.686096,305.004791 105.862114,305.049469 104.038490,305.063660 
	C102.908585,304.736115 101.778671,304.408569 99.980103,303.963989 
	C95.352524,301.198608 91.392456,298.552032 87.435013,295.901550 
	C83.583481,293.321991 79.582275,291.715637 74.979790,293.960236 
	C73.893227,294.306152 72.806664,294.652100 71.382996,295.075378 
	C71.030655,248.307114 70.997398,201.461456 71.068130,154.615967 
	C71.070869,152.800003 72.071823,150.985565 72.974915,148.928589 
	C77.813728,148.837982 82.286415,149.128555 86.756363,149.091095 
	C89.697617,149.066467 91.005447,150.070572 90.901474,153.132202 
	C90.755165,157.440170 90.882156,161.757416 90.790337,166.911072 
	C90.519081,170.967087 90.349777,174.182693 90.180473,177.398315 
	C90.634506,177.601654 91.088547,177.805008 91.542580,178.008347 
	C100.509415,168.376587 109.476250,158.744827 118.443085,149.113052 
	C134.393524,149.121078 150.344086,149.095123 166.294281,149.162888 
	C169.931595,149.178329 173.567535,149.517548 177.611252,149.603104 
M310.629028,310.985382 
	C332.883331,288.953735 341.094696,262.532318 334.923492,231.852493 
	C327.566620,195.278091 292.456024,166.203964 255.139572,166.038376 
	C251.491440,166.302261 247.817383,166.373413 244.199203,166.859955 
	C209.258606,171.558716 184.902512,190.345932 173.771881,223.661697 
	C162.631790,257.005707 170.945694,286.604095 196.357147,311.886414 
	C201.541840,315.733398 206.379211,320.204529 211.972549,323.317139 
	C233.856323,335.495056 256.976929,337.336395 280.635559,329.508423 
	C290.382538,326.283417 299.634003,321.636414 307.566895,313.833801 
	C308.378540,312.983246 309.190216,312.132721 310.629028,310.985382 
z"/>
<path fill="#ECEFF1" opacity="1.000000" stroke="none" 
	d="
M145.059723,351.995239 
	C209.047592,351.998993 273.035461,352.002747 337.488312,352.007233 
	C334.970795,367.114594 336.013245,381.849152 342.102539,396.489319 
	C340.451172,397.226959 338.728729,397.923431 337.005798,397.924530 
	C269.255615,397.967651 201.505371,397.947479 133.465637,397.629913 
	C136.990402,393.908600 139.461838,389.486115 138.430862,384.558136 
	C136.391586,374.810760 137.348557,365.912354 142.979492,357.559479 
	C144.055801,355.962860 144.385544,353.862946 145.059723,351.995239 
z"/>
<path fill="#ECEEF0" opacity="1.000000" stroke="none" 
	d="
M424.863434,361.795074 
	C430.897888,355.756775 436.932343,349.718475 443.271667,343.547913 
	C456.173157,364.141571 451.394928,384.925018 439.942719,398.029877 
	C431.799011,407.348755 421.508240,412.460602 408.463623,413.167664 
	C407.513702,413.159332 407.250549,413.281586 407.031769,413.499207 
	C406.289642,413.533478 405.547485,413.567749 404.292725,413.205231 
	C382.130341,406.718292 367.001343,388.656067 368.996033,364.622986 
	C370.021759,352.264404 374.829163,341.540283 384.935822,334.270538 
	C390.985474,329.919067 398.277344,327.294556 405.010864,323.893799 
	C414.539215,323.357330 423.147705,326.034302 431.224701,331.621796 
	C425.533447,337.852295 419.622711,343.795746 413.091888,349.697693 
	C409.677521,349.391022 406.883240,349.125824 403.682068,348.858185 
	C393.402130,350.490692 386.371735,358.258789 386.058838,367.878662 
	C385.744781,377.532837 392.297363,385.781921 402.344330,388.057526 
	C410.159302,389.251648 416.479675,387.045746 421.387207,381.336151 
	C426.349854,375.562408 427.460419,368.977051 424.863434,361.795074 
z"/>
<path fill="#D3D0D5" opacity="1.000000" stroke="none" 
	d="
M404.562042,323.850891 
	C398.277344,327.294556 390.985474,329.919067 384.935822,334.270538 
	C374.829163,341.540283 370.021759,352.264404 368.996033,364.622986 
	C367.001343,388.656067 382.130341,406.718292 403.935059,413.093689 
	C379.913361,412.240356 361.037384,392.599243 361.015106,368.593628 
	C360.991394,343.031982 382.685547,323.544525 404.562042,323.850891 
z"/>
<path fill="#FD4F5C" opacity="1.000000" stroke="none" 
	d="
M407.184692,298.740265 
	C410.420013,298.624420 413.780914,298.840302 417.905945,299.202911 
	C424.091492,300.946899 429.512909,302.544220 435.142578,304.394470 
	C436.937225,305.469147 438.523590,306.290894 440.109955,307.112610 
	C439.790161,308.497955 439.470367,309.883331 439.174286,311.627808 
	C429.236359,306.033691 418.818970,301.205688 407.184692,298.740265 
z"/>
<path fill="#D3D0D5" opacity="1.000000" stroke="none" 
	d="
M407.253540,413.565430 
	C407.250549,413.281586 407.513702,413.159332 408.043457,413.160034 
	C408.068268,413.453278 407.804840,413.601288 407.253540,413.565430 
z"/>
<path fill="#ECEFF1" opacity="1.000000" stroke="none" 
	d="
M82.256432,319.802490 
	C101.520416,320.799133 117.410286,337.600220 117.877831,357.466644 
	C118.333496,376.828613 102.756126,394.672302 83.198631,396.163208 
	C73.202179,395.390015 65.716721,390.786194 60.060471,384.239563 
	C39.627018,360.589691 51.733711,325.959473 82.256432,319.802490 
z"/>
<path fill="#FFD066" opacity="1.000000" stroke="none" 
	d="
M145.012177,351.594360 
	C144.385544,353.862946 144.055801,355.962860 142.979492,357.559479 
	C137.348557,365.912354 136.391586,374.810760 138.430862,384.558136 
	C139.461838,389.486115 136.990402,393.908600 132.984406,397.610260 
	C130.365097,398.923798 127.937531,399.951324 125.138123,401.065613 
	C120.803741,404.165100 116.579491,406.899017 112.969284,410.287231 
	C110.500458,412.604248 109.084435,416.002167 106.844666,418.614075 
	C103.727829,422.248779 99.556595,423.547394 94.380394,422.816772 
	C98.576698,416.705872 102.900566,410.429871 107.960686,404.817719 
	C110.023064,402.530365 113.644836,401.602997 116.622604,400.195374 
	C127.228119,395.181976 129.559036,392.564240 127.715546,380.992004 
	C126.314896,372.199554 128.441635,364.997559 132.599533,357.806976 
	C135.759262,352.342621 135.656174,347.073517 131.566757,342.113434 
	C130.512939,340.835205 129.328705,339.627716 128.046844,338.580627 
	C121.748726,333.435760 117.965721,327.088287 116.853920,318.828705 
	C115.918388,311.878662 111.796661,307.043884 104.280800,305.312622 
	C105.862114,305.049469 107.686096,305.004791 109.509300,305.026062 
	C120.390434,305.153076 125.026169,308.705963 127.006355,319.312378 
	C128.509415,327.363159 132.161148,333.808746 138.663818,338.805756 
	C142.645615,341.865601 144.966522,345.995483 145.012177,351.594360 
z"/>
<path fill="#D3D2D5" opacity="1.000000" stroke="none" 
	d="
M81.907440,319.569000 
	C51.733711,325.959473 39.627018,360.589691 60.060471,384.239563 
	C65.716721,390.786194 73.202179,395.390015 82.786705,396.165161 
	C70.075439,398.836975 59.446537,393.845856 50.470356,384.841003 
	C39.700459,374.036774 36.822853,356.622650 43.043255,342.776794 
	C49.830769,327.668610 64.345634,318.371124 80.097221,319.056122 
	C80.587418,319.077454 81.071510,319.239227 81.907440,319.569000 
z"/>
<path fill="#FED26A" opacity="1.000000" stroke="none" 
	d="
M75.177399,294.231689 
	C79.582275,291.715637 83.583481,293.321991 87.435013,295.901550 
	C91.392456,298.552032 95.352524,301.198608 99.624771,303.995789 
	C94.852417,306.149231 90.125549,304.959656 85.798744,302.160004 
	C82.185501,299.822021 78.839409,297.071198 75.177399,294.231689 
z"/>
<path fill="#EDEFEE" opacity="1.000000" stroke="none" 
	d="
M146.600128,89.751221 
	C146.094666,84.512619 146.047073,79.306686 146.070435,73.661224 
	C152.624542,73.224762 159.122055,72.963226 165.586243,73.314919 
	C170.729065,73.594696 174.098282,77.242256 173.993210,81.453819 
	C173.887848,85.677071 171.071960,88.608498 166.455597,89.134186 
	C163.658051,89.452766 160.843246,89.703186 158.030457,89.783562 
	C154.375946,89.887993 150.715744,89.793030 146.600128,89.751221 
z"/>
<path fill="#FED26A" opacity="1.000000" stroke="none" 
	d="
M117.955460,149.082428 
	C109.476250,158.744827 100.509415,168.376587 91.542580,178.008347 
	C91.088547,177.805008 90.634506,177.601654 90.180473,177.398315 
	C90.349777,174.182693 90.519081,170.967087 90.836395,167.377258 
	C94.941452,163.202682 99.697975,159.932297 102.656357,155.469849 
	C106.488472,149.689423 111.250969,148.232239 117.955460,149.082428 
z"/>
<path fill="#FE6570" opacity="1.000000" stroke="none" 
	d="
M339.235870,161.956421 
	C338.725159,157.591766 338.703796,153.255753 338.589233,148.464249 
	C338.590790,143.384247 338.778534,138.759201 338.752625,134.135345 
	C338.729309,129.968674 340.759491,128.057358 344.800415,128.035095 
	C347.943451,128.017776 351.090942,128.110199 354.228638,127.974243 
	C358.977142,127.768494 360.771393,130.410690 360.873779,134.671036 
	C360.973083,138.804504 360.924713,142.941528 360.939301,147.999390 
	C360.912811,153.248596 360.888184,157.575409 360.863556,161.902222 
	C353.817444,161.929825 346.771301,161.957428 339.235870,161.956421 
z"/>
<path fill="#D8ECFE" opacity="1.000000" stroke="none" 
	d="
M361.340668,161.937805 
	C360.888184,157.575409 360.912811,153.248596 361.009308,148.462051 
	C366.727020,148.002594 372.372833,148.002853 378.481445,148.006683 
	C378.995544,152.331085 379.046875,156.651917 379.113159,161.425629 
	C373.357971,161.910126 367.587891,161.941757 361.340668,161.937805 
z"/>
<path fill="#ECEFF1" opacity="1.000000" stroke="none" 
	d="
M440.447327,307.057007 
	C438.523590,306.290894 436.937225,305.469147 435.163208,303.916443 
	C434.993591,261.498993 435.011658,219.812546 435.029755,178.126099 
	C440.691223,178.093094 446.352692,178.060074 452.474792,178.065552 
	C452.970978,216.803818 453.006561,255.503586 453.080566,294.685669 
	C449.007568,299.112427 444.896118,303.056915 440.447327,307.057007 
z"/>
<path fill="#C4E2FF" opacity="1.000000" stroke="none" 
	d="
M434.561279,178.081482 
	C435.011658,219.812546 434.993591,261.498993 434.954926,303.663483 
	C429.512909,302.544220 424.091492,300.946899 418.332916,299.164825 
	C417.993256,259.002441 417.990753,219.024841 417.980164,178.591614 
	C423.345642,178.102966 428.719208,178.069931 434.561279,178.081482 
z"/>
<path fill="#D4EBFB" opacity="1.000000" stroke="none" 
	d="
M401.237946,161.033005 
	C401.200012,157.003937 401.162048,152.974869 401.198914,148.489868 
	C407.122894,148.012833 412.971985,147.991714 419.262726,147.957733 
	C419.771301,152.290054 419.838257,156.635254 419.888245,161.433502 
	C414.208130,161.907913 408.545013,161.929245 402.333008,161.729874 
	C401.644318,161.301971 401.462280,161.143250 401.237946,161.033005 
z"/>
<path fill="#25E8A7" opacity="1.000000" stroke="none" 
	d="
M441.571167,161.091171 
	C441.736938,160.992142 441.921265,161.443542 441.941956,161.685730 
	C441.962646,161.927902 441.467316,161.928848 441.224731,161.878494 
	C441.071808,161.581360 441.212891,161.368713 441.571167,161.091171 
z"/>
<path fill="#ECEFEF" opacity="1.000000" stroke="none" 
	d="
M401.163666,161.228516 
	C401.462280,161.143250 401.644318,161.301971 401.864990,161.671753 
	C401.945892,161.834335 401.488403,161.889038 401.259644,161.863617 
	C401.030914,161.838196 401.089386,161.424026 401.163666,161.228516 
z"/>
<path fill="#FD6570" opacity="1.000000" stroke="none" 
	d="
M404.088959,348.860626 
	C406.883240,349.125824 409.677521,349.391022 412.797791,349.846313 
	C409.190216,354.099670 405.226593,358.134338 401.331604,362.234192 
	C397.420349,366.351227 397.180969,370.677368 400.575775,374.152374 
	C403.972870,377.629730 408.386414,377.575775 412.534302,373.715698 
	C416.557068,369.972076 420.374390,366.007751 424.572693,361.967712 
	C427.460419,368.977051 426.349854,375.562408 421.387207,381.336151 
	C416.479675,387.045746 410.159302,389.251648 402.292328,387.722656 
	C401.450073,386.786499 401.096497,386.192719 400.576141,385.859375 
	C390.646362,379.498169 387.388885,368.710510 393.426727,358.657196 
	C395.810181,354.688629 400.467224,352.085510 404.088959,348.860626 
z"/>
<path fill="#DEDEE1" opacity="1.000000" stroke="none" 
	d="
M127.768112,406.600281 
	C127.521347,406.856567 127.269890,406.742004 127.044403,406.223755 
	C127.254189,406.079926 127.485199,406.216370 127.768112,406.600281 
z"/>
<path fill="#D4EBFB" opacity="1.000000" stroke="none" 
	d="
M419.769775,121.777740 
	C419.572876,121.886810 419.404785,121.760178 419.200439,121.445724 
	C419.424500,121.212807 419.635986,121.307518 419.769775,121.777740 
z"/>
<path fill="#685F69" opacity="1.000000" stroke="none" 
	d="
M196.047424,311.344208 
	C170.945694,286.604095 162.631790,257.005707 173.771881,223.661697 
	C184.902512,190.345932 209.258606,171.558716 244.199203,166.859955 
	C247.817383,166.373413 251.491440,166.302261 255.692017,166.476654 
	C256.775330,167.254379 257.273163,167.816605 257.841827,167.900864 
	C274.354980,170.348251 288.683899,177.689087 300.413422,189.158951 
	C319.583679,207.904831 328.617401,230.738449 326.137573,257.969025 
	C324.734619,273.374817 319.119598,286.902313 310.621857,299.470825 
	C309.802887,300.682129 308.002625,301.229980 306.422241,301.857361 
	C296.536255,282.615814 281.194366,271.234283 260.079865,268.392029 
	C249.296890,266.940521 238.568161,267.989044 228.943192,273.812775 
	C229.045380,273.869232 228.851181,273.736237 228.519196,273.737488 
	C227.441879,274.152283 226.696518,274.565826 225.975372,274.991577 
	C225.999588,275.003815 225.998764,274.949585 225.698975,274.977051 
	C224.929871,275.339752 224.460556,275.675018 223.997437,276.007782 
	C224.003632,276.005280 224.013306,275.996185 223.753860,276.051575 
	C223.274185,276.365387 223.053955,276.623810 222.881271,276.885254 
	C222.928818,276.888275 222.905533,276.795898 222.598633,276.831421 
	C221.814819,277.224304 221.337891,277.581635 220.548492,278.059631 
	C218.900330,279.164795 217.536484,280.113525 216.233398,281.139404 
	C206.229141,289.015472 200.365601,299.664764 196.047424,311.344208 
M255.316406,199.087952 
	C254.877884,199.121277 254.439346,199.154602 253.503128,199.075821 
	C253.336823,199.111298 253.170502,199.146790 252.185394,199.071274 
	C235.411758,200.010818 222.890244,213.101318 223.350311,229.216675 
	C223.811386,245.368210 236.947922,258.087555 253.504166,258.028778 
	C253.669449,257.980713 253.834717,257.932617 254.657532,257.963806 
	C255.095154,257.912628 255.532761,257.861481 256.766022,257.957153 
	C259.324188,257.308167 261.988770,256.928040 264.422485,255.964661 
	C276.454926,251.201584 284.749725,237.091736 282.699432,225.150558 
	C280.163239,210.379471 269.265533,199.796127 255.316406,199.087952 
z"/>
<path fill="#8AC9FD" opacity="1.000000" stroke="none" 
	d="
M196.202286,311.615295 
	C200.365601,299.664764 206.229141,289.015472 216.233398,281.139404 
	C217.536484,280.113525 218.900330,279.164795 220.868759,278.048126 
	C221.969498,277.542542 222.437515,277.169220 222.905533,276.795898 
	C222.905533,276.795898 222.928818,276.888275 223.133514,276.821472 
	C223.563248,276.501831 223.788269,276.249023 224.013306,275.996185 
	C224.013306,275.996185 224.003632,276.005280 224.300095,275.985992 
	C225.063950,275.627655 225.531357,275.288605 225.998764,274.949585 
	C225.998764,274.949585 225.999588,275.003815 226.325531,275.000549 
	C227.384720,274.576935 228.117950,274.156586 228.851181,273.736237 
	C228.851181,273.736237 229.045380,273.869232 229.346207,273.886475 
	C239.569229,270.609131 249.886719,269.414154 260.025665,271.336639 
	C284.231720,275.926453 299.976227,290.390198 307.036530,314.112000 
	C299.634003,321.636414 290.382538,326.283417 280.635559,329.508423 
	C256.976929,337.336395 233.856323,335.495056 211.972549,323.317139 
	C206.379211,320.204529 201.541840,315.733398 196.202286,311.615295 
z"/>
<path fill="#564B57" opacity="1.000000" stroke="none" 
	d="
M306.657898,302.085815 
	C308.002625,301.229980 309.802887,300.682129 310.621857,299.470825 
	C319.119598,286.902313 324.734619,273.374817 326.137573,257.969025 
	C328.617401,230.738449 319.583679,207.904831 300.413422,189.158951 
	C288.683899,177.689087 274.354980,170.348251 257.841827,167.900864 
	C257.273163,167.816605 256.775330,167.254379 256.138489,166.562500 
	C292.456024,166.203964 327.566620,195.278091 334.923492,231.852493 
	C341.094696,262.532318 332.883331,288.953735 310.078430,310.840515 
	C308.571198,307.825714 307.614532,304.955780 306.657898,302.085815 
z"/>
<path fill="#64B5F8" opacity="1.000000" stroke="none" 
	d="
M306.422241,301.857361 
	C307.614532,304.955780 308.571198,307.825714 309.764893,310.988953 
	C309.190216,312.132721 308.378540,312.983246 307.301697,313.972900 
	C299.976227,290.390198 284.231720,275.926453 260.025665,271.336639 
	C249.886719,269.414154 239.569229,270.609131 229.244019,273.830017 
	C238.568161,267.989044 249.296890,266.940521 260.079865,268.392029 
	C281.194366,271.234283 296.536255,282.615814 306.422241,301.857361 
z"/>
<path fill="#FD4F5C" opacity="1.000000" stroke="none" 
	d="
M403.682068,348.858185 
	C400.467224,352.085510 395.810181,354.688629 393.426727,358.657196 
	C387.388885,368.710510 390.646362,379.498169 400.576141,385.859375 
	C401.096497,386.192719 401.450073,386.786499 401.933289,387.593872 
	C392.297363,385.781921 385.744781,377.532837 386.058838,367.878662 
	C386.371735,358.258789 393.402130,350.490692 403.682068,348.858185 
z"/>
<path fill="#F5DBCC" opacity="1.000000" stroke="none" 
	d="
M255.970383,257.810333 
	C255.532761,257.861481 255.095154,257.912628 254.228745,257.783295 
	C253.532852,257.709656 253.265747,257.816559 252.998657,257.923462 
	C236.947922,258.087555 223.811386,245.368210 223.350311,229.216675 
	C222.890244,213.101318 235.411758,200.010818 252.693878,199.257568 
	C253.202377,199.443848 253.650864,199.511108 253.650864,199.511108 
	C253.650864,199.511108 254.000824,199.187943 254.000824,199.187927 
	C254.439346,199.154602 254.877884,199.121277 255.723495,199.466217 
	C257.620667,200.831451 259.031647,201.973236 260.613037,202.781540 
	C277.189392,211.254074 281.128601,235.438187 267.826385,248.548965 
	C264.278320,252.045944 259.943817,254.744980 255.970383,257.810333 
z"/>
<path fill="#EDC9BB" opacity="1.000000" stroke="none" 
	d="
M256.368195,257.883728 
	C259.943817,254.744980 264.278320,252.045944 267.826385,248.548965 
	C281.128601,235.438187 277.189392,211.254074 260.613037,202.781540 
	C259.031647,201.973236 257.620667,200.831451 256.050232,199.518280 
	C269.265533,199.796127 280.163239,210.379471 282.699432,225.150558 
	C284.749725,237.091736 276.454926,251.201584 264.422485,255.964661 
	C261.988770,256.928040 259.324188,257.308167 256.368195,257.883728 
z"/>
<path fill="#64B5F8" opacity="1.000000" stroke="none" 
	d="
M228.519196,273.737488 
	C228.117950,274.156586 227.384720,274.576935 226.301331,274.988342 
	C226.696518,274.565826 227.441879,274.152283 228.519196,273.737488 
z"/>
<path fill="#64B5F8" opacity="1.000000" stroke="none" 
	d="
M225.698975,274.977051 
	C225.531357,275.288605 225.063950,275.627655 224.293915,275.988495 
	C224.460556,275.675018 224.929871,275.339752 225.698975,274.977051 
z"/>
<path fill="#64B5F8" opacity="1.000000" stroke="none" 
	d="
M222.598633,276.831421 
	C222.437515,277.169220 221.969498,277.542542 221.181213,277.927429 
	C221.337891,277.581635 221.814819,277.224304 222.598633,276.831421 
z"/>
<path fill="#64B5F8" opacity="1.000000" stroke="none" 
	d="
M223.753860,276.051575 
	C223.788269,276.249023 223.563248,276.501831 223.085968,276.818451 
	C223.053955,276.623810 223.274185,276.365387 223.753860,276.051575 
z"/>
<path fill="#EDC9BB" opacity="1.000000" stroke="none" 
	d="
M253.251404,257.976135 
	C253.265747,257.816559 253.532852,257.709656 253.899963,257.743652 
	C253.834717,257.932617 253.669449,257.980713 253.251404,257.976135 
z"/>
<path fill="#EDC9BB" opacity="1.000000" stroke="none" 
	d="
M253.751984,199.131882 
	C254.000824,199.187943 253.650864,199.511108 253.650864,199.511108 
	C253.650864,199.511108 253.202377,199.443848 253.103287,199.313065 
	C253.170502,199.146790 253.336823,199.111298 253.751984,199.131882 
z"/>
</svg>